<svg width="28" height="28" viewBox="0 0 28 28" fill="none" xmlns="http://www.w3.org/2000/svg">
<path d="M2.62504 9.625H25.375M1.93707 10.2927L13.2984 25.0288C13.381 25.1365 13.4872 25.2237 13.6089 25.2837C13.7305 25.3437 13.8644 25.3749 14 25.3749C14.1357 25.3749 14.2695 25.3437 14.3912 25.2837C14.5129 25.2237 14.6191 25.1365 14.7017 25.0288L26.063 10.2927C26.1747 10.1473 26.2395 9.97129 26.2488 9.78814C26.2581 9.60498 26.2114 9.42333 26.115 9.26734L22.2611 3.04664C22.1818 2.91791 22.0709 2.81159 21.9389 2.73779C21.8069 2.664 21.6582 2.62517 21.507 2.625H6.49309C6.34187 2.62517 6.1932 2.664 6.06121 2.73779C5.92922 2.81159 5.81829 2.91791 5.73895 3.04664L1.88512 9.26734C1.78868 9.42333 1.742 9.60498 1.75128 9.78814C1.76056 9.97129 1.82536 10.1473 1.93707 10.2927V10.2927Z" stroke="#950DB7" stroke-width="1.5" stroke-linecap="round" stroke-linejoin="round"/>
<path d="M21.875 3.5L19.25 9.625L14 2.625M6.125 3.5L8.75 9.625L14 2.625M14 24.5L8.75 9.625M14 24.5L19.25 9.625" stroke="#950DB7" stroke-width="1.5" stroke-linecap="round" stroke-linejoin="round"/>
</svg>
