<svg width="28" height="28" viewBox="0 0 28 28" fill="none" xmlns="http://www.w3.org/2000/svg">
<path d="M13.9999 2.33337C12.4678 2.33337 10.9507 2.63514 9.53528 3.22145C8.11981 3.80775 6.83369 4.66711 5.75034 5.75046C3.56242 7.93839 2.33325 10.9058 2.33325 14C2.33325 19.1567 5.68159 23.5317 10.3133 25.0834C10.8966 25.1767 11.0833 24.815 11.0833 24.5V22.5284C7.85159 23.2284 7.16325 20.965 7.16325 20.965C6.62659 19.6117 5.86825 19.25 5.86825 19.25C4.80659 18.5267 5.94992 18.55 5.94992 18.55C7.11659 18.6317 7.73492 19.7517 7.73492 19.7517C8.74992 21.525 10.4649 21 11.1299 20.72C11.2349 19.9617 11.5383 19.4484 11.8649 19.1567C9.27492 18.865 6.55659 17.8617 6.55659 13.4167C6.55659 12.1217 6.99992 11.0834 7.75825 10.255C7.64159 9.96337 7.23325 8.75004 7.87492 7.17504C7.87492 7.17504 8.85492 6.86004 11.0833 8.36504C12.0049 8.10837 13.0083 7.98004 13.9999 7.98004C14.9916 7.98004 15.9949 8.10837 16.9166 8.36504C19.1449 6.86004 20.1249 7.17504 20.1249 7.17504C20.7666 8.75004 20.3583 9.96337 20.2416 10.255C20.9999 11.0834 21.4433 12.1217 21.4433 13.4167C21.4433 17.8734 18.7133 18.8534 16.1116 19.145C16.5316 19.5067 16.9166 20.2184 16.9166 21.3034V24.5C16.9166 24.815 17.1033 25.1884 17.6983 25.0834C22.3299 23.52 25.6666 19.1567 25.6666 14C25.6666 12.468 25.3648 10.9509 24.7785 9.5354C24.1922 8.11994 23.3328 6.83381 22.2495 5.75046C21.1661 4.66711 19.88 3.80775 18.4646 3.22145C17.0491 2.63514 15.532 2.33337 13.9999 2.33337Z" fill="#950DB7"/>
</svg>
